<svg xmlns="http://www.w3.org/2000/svg" version="1.1" xmlns:xlink="http://www.w3.org/1999/xlink" width="512" height="512" x="0" y="0" viewBox="0 0 682.667 682.667" style="enable-background:new 0 0 512 512" xml:space="preserve" class=""><g><defs><clipPath id="a" clipPathUnits="userSpaceOnUse">
<path d="M0 512h512V0H0Z" fill="#000000" opacity="1" data-original="#000000"></path></clipPath></defs><g clip-path="url(#a)" transform="matrix(1.33333 0 0 -1.33333 0 682.667)">
<path d="M0 0a46.52 46.52 0 0 1 27.086-8.649c13.87 0 26.323 6.046 34.885 15.64 18.14-11.946 42.768-9.94 58.729 6.02a46.536 46.536 0 0 1 13.253 26.7c15.661 7.552 26.468 23.58 26.468 42.131 0 16.076-8.117 30.253-20.474 38.666 6.911 16.907 3.507 37.041-10.217 50.765a46.519 46.519 0 0 1-18.391 11.33c5.307 16.211 1.53 34.748-11.357 47.635a46.523 46.523 0 0 1-26.873 13.274c2.555 14.509-1.759 29.992-12.967 41.2a46.515 46.515 0 0 1-23.484 12.696c.788 12.9-3.736 26.064-13.594 35.922a46.53 46.53 0 0 1-26.759 13.26c-1.249 9.942-5.678 19.561-13.313 27.196-7.751 7.751-17.548 12.198-27.651 13.367-7.969 14.393-23.303 24.142-40.92 24.142s-32.951-9.749-40.92-24.142c-10.104-1.169-19.9-5.616-27.651-13.367-7.635-7.635-12.064-17.254-13.313-27.196a46.536 46.536 0 0 1-26.76-13.26c-9.857-9.858-14.381-23.022-13.593-35.922a46.515 46.515 0 0 1-23.484-12.696c-11.208-11.208-15.522-26.691-12.968-41.2a46.53 46.53 0 0 1-26.873-13.274c-12.886-12.887-16.664-31.424-11.356-47.635a46.53 46.53 0 0 1-18.392-11.33c-13.723-13.724-17.128-33.858-10.216-50.765-12.357-8.413-20.474-22.59-20.474-38.666 0-18.551 10.807-34.579 26.468-42.131a46.536 46.536 0 0 1 13.253-26.7c15.961-15.96 40.588-17.966 58.729-6.02 8.562-9.594 21.015-15.64 34.885-15.64A46.536 46.536 0 0 1-170.075.795" style="stroke-width:20;stroke-linecap:round;stroke-linejoin:round;stroke-miterlimit:10;stroke-dasharray:none;stroke-opacity:1" transform="translate(341.58 54.893)" fill="none" stroke="#000000" stroke-width="20" stroke-linecap="round" stroke-linejoin="round" stroke-miterlimit="10" stroke-dasharray="none" stroke-opacity="" data-original="#000000"></path>
<path d="M0 0h-20.729c-11.126 0-20.147-9.021-20.147-20.147v-116.129c0-11.128 9.021-20.148 20.147-20.148h131.458c11.126 0 20.147 9.02 20.147 20.148v116.129C130.876-9.021 121.855 0 110.729 0H90" style="stroke-width:20;stroke-linecap:round;stroke-linejoin:round;stroke-miterlimit:10;stroke-dasharray:none;stroke-opacity:1" transform="translate(211 202.236)" fill="none" stroke="#000000" stroke-width="20" stroke-linecap="round" stroke-linejoin="round" stroke-miterlimit="10" stroke-dasharray="none" stroke-opacity="" data-original="#000000"></path>
<path d="m0 0 7.603-7.602" style="stroke-width:20;stroke-linecap:round;stroke-linejoin:round;stroke-miterlimit:10;stroke-dasharray:none;stroke-opacity:1" transform="translate(247.688 369.695)" fill="none" stroke="#000000" stroke-width="20" stroke-linecap="round" stroke-linejoin="round" stroke-miterlimit="10" stroke-dasharray="none" stroke-opacity="" data-original="#000000"></path>
<path d="m0 0 7.603-7.602" style="stroke-width:20;stroke-linecap:round;stroke-linejoin:round;stroke-miterlimit:10;stroke-dasharray:none;stroke-opacity:1" transform="translate(256 281.84)" fill="none" stroke="#000000" stroke-width="20" stroke-linecap="round" stroke-linejoin="round" stroke-miterlimit="10" stroke-dasharray="none" stroke-opacity="" data-original="#000000"></path>
<path d="m0 0-7.603-7.602" style="stroke-width:20;stroke-linecap:round;stroke-linejoin:round;stroke-miterlimit:10;stroke-dasharray:none;stroke-opacity:1" transform="translate(204.046 318.451)" fill="none" stroke="#000000" stroke-width="20" stroke-linecap="round" stroke-linejoin="round" stroke-miterlimit="10" stroke-dasharray="none" stroke-opacity="" data-original="#000000"></path>
<path d="m0 0-7.603-7.602" style="stroke-width:20;stroke-linecap:round;stroke-linejoin:round;stroke-miterlimit:10;stroke-dasharray:none;stroke-opacity:1" transform="translate(373.748 255.825)" fill="none" stroke="#000000" stroke-width="20" stroke-linecap="round" stroke-linejoin="round" stroke-miterlimit="10" stroke-dasharray="none" stroke-opacity="" data-original="#000000"></path>
<path d="M0 0h-10.751" style="stroke-width:20;stroke-linecap:round;stroke-linejoin:round;stroke-miterlimit:10;stroke-dasharray:none;stroke-opacity:1" transform="translate(323.313 323.941)" fill="none" stroke="#000000" stroke-width="20" stroke-linecap="round" stroke-linejoin="round" stroke-miterlimit="10" stroke-dasharray="none" stroke-opacity="" data-original="#000000"></path>
<path d="M0 0h-10.751" style="stroke-width:20;stroke-linecap:round;stroke-linejoin:round;stroke-miterlimit:10;stroke-dasharray:none;stroke-opacity:1" transform="translate(154.418 256.215)" fill="none" stroke="#000000" stroke-width="20" stroke-linecap="round" stroke-linejoin="round" stroke-miterlimit="10" stroke-dasharray="none" stroke-opacity="" data-original="#000000"></path>
<path d="M0 0v0" style="stroke-width:20;stroke-linecap:round;stroke-linejoin:round;stroke-miterlimit:10;stroke-dasharray:none;stroke-opacity:1" transform="translate(256 202.236)" fill="none" stroke="#000000" stroke-width="20" stroke-linecap="round" stroke-linejoin="round" stroke-miterlimit="10" stroke-dasharray="none" stroke-opacity="" data-original="#000000"></path></g></g></svg>